<svg xmlns="http://www.w3.org/2000/svg" width="320" height="96" viewBox="0 0 320 96" role="img" aria-labelledby="title desc">
  <title id="title">Buy Me A Chai</title>
  <desc id="desc">A button linking to Buy Me A Chai</desc>
  <rect width="320" height="96" rx="18" fill="#ffffff"/>
  <rect x="3" y="3" width="314" height="90" rx="15" fill="#fff8e5" stroke="#d4a843" stroke-width="6"/>
  <circle cx="62" cy="48" r="28" fill="#1b5e20"/>
  <path d="M49 38h25v15a12 12 0 0 1-12 12h-1a12 12 0 0 1-12-12V38z" fill="#ffffff"/>
  <path d="M74 43h5a7 7 0 0 1 0 14h-5" fill="none" stroke="#ffffff" stroke-width="5" stroke-linecap="round"/>
  <path d="M54 30c0-5 5-5 5-10M64 30c0-5 5-5 5-10" fill="none" stroke="#d4a843" stroke-width="4" stroke-linecap="round"/>
  <text x="108" y="42" fill="#0d3b14" font-family="Arial, Helvetica, sans-serif" font-size="18" font-weight="700">Buy Me A</text>
  <text x="108" y="67" fill="#1b5e20" font-family="Arial, Helvetica, sans-serif" font-size="28" font-weight="800">Chai</text>
  <path d="M238 31h42a10 10 0 0 1 10 10v14a10 10 0 0 1-10 10h-42a10 10 0 0 1-10-10V41a10 10 0 0 1 10-10z" fill="#d4a843"/>
  <path d="M249 48h18m0 0-7-7m7 7-7 7" fill="none" stroke="#0d3b14" stroke-width="4" stroke-linecap="round" stroke-linejoin="round"/>
</svg>
